<svg enable-background="new 0 0 462.2 353.8" height="70" viewBox="0 0 462.2 353.8" width="130" x="0px" xmlns="http://www.w3.org/2000/svg" y="0px"><path d="M4.4,248.7c-0.1-2.3-0.2-4.7-0.3-7c8.2-1.3,16.4-2.7,24.7-4c8.2,16.6,16.4,33.1,24.7,49.7
 c0-13.7,0-27.3,0-41c-1.4-1.6-2.9-3.1-4.3-4.7c-0.1-2.6-0.2-5.1-0.3-7.7c7.6-1.3,15.1-2.7,22.7-4c-0.1,2.7-0.2,5.3-0.3,8
 c-1.3,1.9-2.7,3.8-4,5.7c-0.1,28.8-0.2,57.6-0.3,86.3c1.6,1.4,3.1,2.9,4.7,4.3c0,2.4,0,4.9,0,7.3c-7.6,1.4-15.1,2.9-22.7,4.3
 c-0.1-2.3-0.2-4.7-0.3-7c1.6-2.2,3.1-4.4,4.7-6.7c0.2-5.3,0.4-10.7,0.7-16c-10.2-19.3-20.4-38.7-30.7-58c0,26.4,0,52.9,0,79.3
 c1.3,1.4,2.7,2.9,4,4.3c0.1,2.4,0.2,4.9,0.3,7.3c-7.4,1.6-14.9,3.1-22.3,4.7c-0.1-2.4-0.2-4.9-0.3-7.3c1.7-2.2,3.3-4.4,5-6.7
 c-0.1-28.7-0.2-57.3-0.3-86C7.7,252.3,6.1,250.5,4.4,248.7z" fill="#daaf6d"></path><path d="M84.1,251c-0.1-2-0.2-4-0.3-6c13.2-2.3,26.4-4.7,39.7-7c0.1,4.9,0.2,9.8,0.3,14.7c-2.1,0.3-4.2,0.7-6.3,1
 c-1.4-1.1-2.9-2.2-4.3-3.3c-5.1,1-10.2,2-15.3,3c0,7.6,0,15.1,0,22.7c2,0.1,5.1,0,8.7-1c3.4-1,6-2.5,7.7-3.7
 c0.1,4.9,0.2,9.8,0.3,14.7c-5.3,0.2-10.7,0.4-16,0.7c-0.3,9.6-0.7,19.1-1,28.7c5.1-0.6,10.2-1.1,15.3-1.7c1.4-1.7,2.9-3.3,4.3-5
 c2.2-0.3,4.4-0.7,6.7-1c-0.1,4.8-0.2,9.6-0.3,14.3c-13.2,2.3-26.4,4.7-39.7,7c0-2.1,0-4.2,0-6.3c1.3-1.4,2.7-2.9,4-4.3
 c-0.1-21.1-0.2-42.2-0.3-63.3C86.3,253.7,85.2,252.4,84.1,251z" fill="#daaf6d"></path><path d="M139.1,244.7c-1-1-2-2-3-3c0-1.7,0-3.3,0-5c6.4-1.2,12.9-2.4,19.3-3.7c5.1,16.9,10.2,33.8,15.3,50.7
 c4.8-18.6,9.6-37.1,14.3-55.7c6.6-1.3,13.1-2.7,19.7-4c0,2.2,0,4.4,0,6.7c-1,1.1-2,2.2-3,3.3c-0.1,21.3-0.2,42.7-0.3,64
 c1.1,1.1,2.2,2.2,3.3,3.3c0.1,2.1,0.1,4.3,0.2,6.4c-5.7,1-11.4,1.9-17.2,2.9c-0.2-2-0.4-4-0.7-6c1.2-1.4,2.4-2.9,3.7-4.3
 c0-17,0-34,0-51c-5,18.3-10,36.7-15,55c0.8,2.7,1.6,5.4,2.3,8.1c-5.1,0.9-10.1,1.7-15.2,2.6c0.8-2.6,1.7-5.1,2.5-7.7
 c-5-17.3-10-34.7-15-52c-0.2,17.1-0.4,34.2-0.7,51.3c1.1,1.2,2.2,2.4,3.3,3.7c0,2.1,0,4.2,0,6.3c-5.8,0.9-11.6,1.8-17.3,2.7
 c0-2,0-4,0-6c1.2-1.3,2.4-2.7,3.7-4C139.3,287.8,139.2,266.3,139.1,244.7z" fill="#daaf6d"></path><path d="M216.6,227.2c0.1-1.9,0.2-3.8,0.2-5.8c5.8-0.9,11.7-1.8,17.5-2.8c0.1,2.2,0.2,4.3,0.2,6.5
 c-1.2,1.5-2.3,3-3.5,4.5c0.1,21.2,0.2,42.3,0.2,63.5c1,1.1,2,2.2,3,3.2c0,1.9,0,3.8,0,5.8c-5.9,0.8-11.8,1.7-17.8,2.5c0-2,0-4,0-6
 c1.3-1.4,2.7-2.8,4-4.2c-0.1-21.2-0.2-42.3-0.2-63.5C219.2,229.7,217.9,228.5,216.6,227.2z" fill="#daaf6d"></path><path d="M282.6,220.5c-7.2,1.3-14.3,2.7-21.5,4c-0.1,0-0.1,0-0.2,0c0.1,8.3,0.1,16.5,0.2,24.8l0,0c0-0.1,0-0.2,0-0.3
 c7.1-1.3,14.2-2.7,21.2-4C282.5,236.8,282.6,228.6,282.6,220.5z" fill="none"></path><path d="M278.6,294.5c6.1-0.9,12.2-1.9,18.2-2.8c-0.4-2.2-0.8-4.3-1.2-6.5c-3.6-9.3-7.6-18.9-12.2-28.7
 c-0.2-0.3-0.3-0.7-0.5-1c0.2,0,0.3,0,0.5,0c0.4,0,1.5,0,2.8-0.2c0.9-0.2,2.4-0.5,4-1.8c1.6-1.2,2.4-2.7,2.8-3.5
 c0-11.6,0-23.2,0-34.8c0-0.5,0-1.5-0.5-2.5c-0.7-1.5-2.1-2.2-2.8-2.5c0,0-1.5-0.7-3.2-0.8c-2.8,0-18.1,2.6-39,6.8
 c-0.1,2.1-0.2,4.2-0.2,6.2c1.1,1.1,2.2,2.2,3.2,3.2c0.1,0,0.2,0,0.2,0c0,21.1,0,42.2,0,63.3c-1,1.5-2,3-3,4.5
 c-0.1,2.1-0.2,4.2-0.2,6.2c6-1,12.1-2,18.1-3c-0.1-1.9-0.3-3.7-0.4-5.6c-1.4-1-2.8-2-4.2-2.9c0-9.4,0-18.8,0-28.2
 c4.2-0.7,8.3-1.3,12.5-2c3,9.1,6,18.2,9,27.2c-1.2,1.1-2.5,2.2-3.8,3.2C278.6,290.5,278.6,292.5,278.6,294.5z M261.2,248.9
 c0,0.1,0,0.2,0,0.3c0.5,0,0.9,0.3,1.2,0.7c0.3,0.4,0.6,0.9,0.9,1.3c0.2,0.3,0.3,0.6,0.2,0.9c1.1,0.3,1.8,1.6,0.8,2.5
 c-0.1,0.1-0.2,0.2-0.3,0.3c0,0.4-0.1,0.7-0.5,1c-0.9,0.8-1.9,1.8-3.1,2.1c-1.1,0.3-2.3-0.4-2.4-1.6c0-0.6,0.2-1.1,0.6-1.6
 c-1.1-1.7,0.1-3.8,1.4-5c0.3-0.3,0.7-0.4,1.1-0.4c-0.1-8.3-0.1-16.5-0.2-24.8c0.1,0,0.1,0,0.2,0c7.2-1.3,14.3-2.7,21.5-4
 c-0.1,8.2-0.2,16.3-0.2,24.5C275.3,246.3,268.2,247.6,261.2,248.9z" fill="#daaf6d"></path><path d="M260,249.6c-1.3,1.3-2.6,3.3-1.4,5c-0.4,0.5-0.6,1.1-0.6,1.6c0.1,1.2,1.3,1.9,2.4,1.6
 c1.2-0.3,2.2-1.3,3.1-2.1c0.4-0.3,0.5-0.7,0.5-1c0.1-0.1,0.2-0.2,0.3-0.3c1-0.9,0.3-2.2-0.8-2.5c0-0.3-0.1-0.6-0.2-0.9
 c-0.3-0.4-0.6-0.9-0.9-1.3s-0.7-0.7-1.2-0.7l0,0C260.7,249.2,260.3,249.3,260,249.6z" fill="#daaf6d"></path><path d="M351.9,208.9c0-1.1,0-2.2,0-3.2c0.1-0.4,0.1-1.2-0.2-2c-0.3-0.8-0.7-1.2-1.2-1.8c-0.6-0.7-1.2-1.4-2.2-1.8
 c-0.9-0.4-1.6-0.5-2.8-0.5c-1.7-0.1-3,0.1-3.2,0.2c-2.2,0.4-13,2.3-27.8,5.2c-0.9,0.4-2.3,1.2-3.7,2.7c-1.4,1.5-2,3.1-2.3,4
 c0,12.1,0,24.2,0,36.3c0,1.6,0,3.3,0,4.9v25.2l0,0c0,1.4,0,2.8,0,4.2c-0.1,0.4-0.1,1.2,0.2,2c0.3,0.8,0.7,1.2,1.2,1.8
 c0.6,0.7,1.2,1.4,2.2,1.8c0.9,0.4,1.6,0.5,2.8,0.5c1.7,0.1,3-0.1,3.2-0.2c2.2-0.4,13-2.3,27.8-5.2c0.9-0.4,2.3-1.2,3.7-2.7
 c1.4-1.5,2-3.1,2.3-4c0-10.4,0-20.9,0-31.3c0-3.3,0-6.6,0-9.9V208.9L351.9,208.9z M341.3,273.1c-7.3,1.4-14.7,2.7-22,4.1v-24.7
 c0-1.8,0-3.5,0-5.3c0-10.8,0-21.7,0-32.5c7.3-1.4,14.7-2.7,22-4.1v24.7c0,2.9,0,5.8,0,8.6C341.3,253.7,341.3,263.4,341.3,273.1z" fill="#daaf6d"></path><path d="M367.9,204.7c-0.6-0.4-1.2-0.7-1.7-1.1c-0.6-0.7-1.2-1.5-1.8-2.2l0,0c0-1.8,0-3.7,0-5.5
 c13.5-2.4,27.1-4.8,40.6-7.2c-0.2,4.8-0.3,9.6-0.5,14.4c-2.2,0.4-4.4,0.8-6.6,1.1c-1.3-1-2.7-2-4-3c-5.1,0.8-10.2,1.7-15.2,2.5
 c-0.1,7.2-0.2,14.5-0.2,21.8c2.2,0.4,6.7,0.8,11.6-1.3c2.2-0.9,3.9-2.2,5.2-3.2c0,4.8,0,9.5,0,14.2c-5.3,0.2-10.7,0.5-16,0.8
 c-0.2,10.3-0.3,20.7-0.5,31c1,1,2,2,3,3c0,2.1-0.1,4.3-0.1,6.4c-5.5,0.9-10.9,1.8-16.4,2.7c-0.2-1.9-0.3-3.9-0.5-5.8
 c1.2-1.7,2.3-3.3,3.5-5C368.1,247,368,225.9,367.9,204.7z" fill="#daaf6d"></path><path d="M418.9,194.9c-0.6-0.4-1.2-0.7-1.7-1.1c-0.6-0.7-1.2-1.5-1.8-2.2l0,0c0-1.8,0-3.7,0-5.5
 c13.5-2.4,27.1-4.8,40.6-7.2c-0.2,4.8-0.3,9.6-0.5,14.4c-2.2,0.4-4.4,0.8-6.6,1.1c-1.3-1-2.7-2-4-3c-5.1,0.8-10.2,1.7-15.2,2.5
 c-0.1,7.2-0.2,14.5-0.2,21.8c2.2,0.4,6.7,0.8,11.6-1.3c2.2-0.9,3.9-2.2,5.2-3.2c0,4.8,0,9.5,0,14.2c-5.3,0.2-10.7,0.5-16,0.8
 c-0.2,10.3-0.3,20.7-0.5,31c1,1,2,2,3,3c0,2.1-0.1,4.3-0.1,6.4c-5.5,0.9-10.9,1.8-16.4,2.7c-0.2-1.9-0.3-3.9-0.5-5.8
 c1.2-1.7,2.3-3.3,3.5-5C419.1,237.2,419,216,418.9,194.9z" fill="#daaf6d"></path><g><path d="M39.8,196.2c1.2-0.9,1.9-2.1,1.9-3.5c0-2.8-3.1-5.1-7.1-5.1s-7.1,2.2-7.1,5.1c0,1.4,0.7,2.6,1.9,3.5
 c-2.2,1.1-3.6,2.9-3.6,5c0,3.5,3.9,6.2,8.8,6.2s8.8-2.7,8.8-6.2C43.4,199.2,42,197.4,39.8,196.2z M34.6,190.7
 c2.3,0,4.1,1.1,4.1,2.1s-1.8,2.1-4.1,2.1s-4.1-1.1-4.1-2.1S32.4,190.7,34.6,190.7z M34.6,204.4c-3.4,0-5.8-1.7-5.8-3.2
 s2.4-3.2,5.8-3.2s5.8,1.7,5.8,3.2S38.1,204.4,34.6,204.4z" fill="#daaf6d"></path><polygon fill="#daaf6d" points="6.6,188.5 4.1,188.5 0,188.5 0,191.5 4.1,191.5 4.1,206.5 7.1,206.5 7.1,188.5"></polygon><path d="M106.3,191.2c-2.7-4.5-12.2-4.3-13.8,1c0,0.1-0.1,0.2-0.1,0.3l0,0v1.5h2.9v-1c0,0,0,0,0-0.1
 c0.7-2.5,6.3-2.4,7.7-0.8c2.8,3.1-2.5,4.5-4.6,5.4c-2.7,1.1-6.7,2.8-7.7,5.9h-0.1v0.3v0.1c0,0.3,0,0.5,0,0.7v1.8h15.7v-3H94.1
 C97.3,199.2,110.9,199,106.3,191.2z" fill="#daaf6d"></path><polygon fill="#daaf6d" points="62.8,188.5 62.8,191.5 73.3,191.5 62.8,206.5 63.8,206.5 65.5,206.5 66.5,206.5 77,191.5 77,188.5"></polygon></g><g><path d="M292.7,342.7l11.7-20.1c0.6-1.2,1.5-1.8,2.6-1.8h1.5v-1h-11.9v1c3,0,4.5,0.6,4.5,1.7c0,0.4,0,0.8-0.1,1.2
 l-7.8,14.8l-8.3-15.4c-0.1-0.3-0.2-0.6-0.2-0.9c-0.1-0.3-0.1-0.5-0.1-0.7c0-0.4,0.6-0.7,1.7-0.7h2.3v-1h-13.3v1
 c1.9,0,3.3,0.7,4.3,2.2l11.3,19.8h1.8V342.7z" fill="#daaf6d"></path></g><g><path d="M295.5,336.3l-7.2-13.3c-0.1-0.3-0.2-0.6-0.2-0.9c-0.1-0.3-0.1-0.5-0.1-0.7c0-0.4,0.6-0.7,1.7-0.7h2.3v-1
 h-13.3v1c1.9,0,3.3,0.7,4.3,2.2l9.8,17.2C293.6,338.8,294.5,337.5,295.5,336.3z" fill="#daaf6d"></path></g><g><path d="M328.7,342.9c-2.2,0-4.3-0.3-6.1-0.9c-1.9-0.6-3.5-1.4-4.9-2.5s-2.4-2.3-3.2-3.7c-0.8-1.4-1.1-3-1.1-4.6
 c0-1.5,0.4-3,1.1-4.4s1.8-2.7,3.1-3.8c1.3-1.1,3-2,4.9-2.7s4-1,6.3-1s4.4,0.3,6.3,0.9s3.6,1.4,5,2.4s2.5,2.3,3.3,3.7
 c0.8,1.4,1.2,3,1.2,4.6c0,1.5-0.4,2.9-1.1,4.3s-1.8,2.7-3.2,3.9s-3,2-5,2.7C333.2,342.6,331,342.9,328.7,342.9z M329,341.6
 c1.8,0,3.3-0.3,4.5-0.8c1.3-0.5,2.3-1.3,3.1-2.2c0.8-0.9,1.4-2,1.8-3.3s0.6-2.6,0.6-4.1c0-1.4-0.2-2.7-0.6-4s-1-2.4-1.9-3.4
 c-0.8-1-1.9-1.8-3.3-2.4s-3-0.9-5-0.9c-1.8,0-3.3,0.3-4.5,0.9s-2.2,1.3-3,2.3s-1.3,2.1-1.6,3.3c-0.3,1.3-0.5,2.6-0.5,3.9
 c0,1.5,0.2,2.9,0.6,4.2c0.4,1.3,1,2.4,1.9,3.4c0.8,1,1.9,1.7,3.2,2.3C325.7,341.3,327.3,341.6,329,341.6z" fill="#daaf6d"></path></g><g><path d="M328.3,342.3c-1.7,0-3.3-0.3-4.7-0.8c-1.5-0.6-2.7-1.3-3.8-2.3c-1.1-1-1.9-2.1-2.5-3.4s-0.9-2.7-0.9-4.2
 c0-1.4,0.3-2.7,0.8-4.1c0.6-1.3,1.4-2.5,2.4-3.5s2.3-1.8,3.8-2.5s3.1-0.9,4.9-0.9s3.4,0.3,4.9,0.8s2.8,1.3,3.8,2.2
 c1.1,1,1.9,2.1,2.5,3.4s0.9,2.7,0.9,4.3c0,1.3-0.3,2.7-0.9,4s-1.4,2.5-2.4,3.6s-2.3,1.9-3.8,2.5S330.2,342.3,328.3,342.3z
 M328.6,341c1.4,0,2.5-0.2,3.5-0.7s1.8-1.2,2.4-2c0.6-0.9,1.1-1.9,1.4-3c0.3-1.2,0.5-2.4,0.5-3.8c0-1.3-0.2-2.5-0.5-3.7
 s-0.8-2.2-1.4-3.1s-1.5-1.6-2.6-2.2s-2.3-0.8-3.8-0.8c-1.4,0-2.5,0.3-3.5,0.8s-1.7,1.2-2.3,2.1s-1,1.9-1.3,3.1s-0.4,2.4-0.4,3.6
 c0,1.4,0.2,2.7,0.5,3.9c0.3,1.2,0.8,2.2,1.5,3.1s1.5,1.6,2.5,2.1C326.1,340.8,327.3,341,328.6,341z" fill="#daaf6d"></path></g><g><path d="M350.5,342.4v-1c1,0,1.7,0,2.3-0.1c0.6-0.1,1.1-0.2,1.4-0.4c0.3-0.2,0.6-0.5,0.7-1c0.1-0.4,0.2-1,0.2-1.7
 V324c0-0.8-0.1-1.4-0.2-1.8c-0.2-0.4-0.4-0.7-0.8-0.9c-0.4-0.2-0.9-0.3-1.5-0.3s-1.3-0.1-2.2-0.3v-1c0.6,0.1,1.3,0.1,2,0.1
 s1.4,0,2.2,0c1,0,1.9,0,2.7,0s1.7-0.1,2.5-0.1s1.7-0.1,2.6-0.1s1.9,0,2.9,0c2.7,0,5.2,0.3,7.3,0.8s3.9,1.3,5.4,2.3s2.6,2.2,3.3,3.6
 s1.1,3,1.1,4.8c0,1.7-0.4,3.3-1.1,4.7s-1.9,2.6-3.5,3.6s-3.6,1.7-6.1,2.3c-2.5,0.5-5.5,0.8-9,0.8L350.5,342.4L350.5,342.4z
 M365.6,341.1c3.8,0,6.6-0.8,8.5-2.4s2.8-4.1,2.8-7.6c0-3.4-1-6-3.1-7.6s-5.1-2.4-9-2.4h-1.9c-0.6,0-1.1,0-1.5,0.1
 c-0.4,0-0.7,0.1-0.9,0.3c-0.2,0.1-0.4,0.4-0.5,0.6c-0.1,0.3-0.1,0.7-0.1,1.1v15.3c0,0.6,0.1,1.1,0.2,1.5s0.4,0.6,0.7,0.8
 s0.8,0.3,1.3,0.3s1.2,0.1,2,0.1L365.6,341.1L365.6,341.1z" fill="#daaf6d"></path></g><g><path d="M357.4,339.9c-0.1,0.4-0.3,0.7-0.7,1c-0.3,0.2-0.8,0.4-1.4,0.4c-0.6,0.1-1.4,0.1-2.3,0.1v1h12.2l0,0
 c0.2-0.5,0.4-0.9,0.6-1.3c-0.4,0-0.9,0-1.2,0c-0.5,0-1-0.1-1.3-0.3s-0.6-0.4-0.7-0.8s-0.2-0.8-0.2-1.5v-15.3c0-0.5,0-0.9,0.1-1.1
 c0.1-0.3,0.3-0.5,0.5-0.6s0.5-0.2,0.9-0.3c0.4,0,0.9-0.1,1.5-0.1h1.9c0.4,0,0.9,0,1.3,0c-0.1-0.5-0.2-1-0.3-1.5c-0.2,0-0.3,0-0.5,0
 c-1,0-2,0-2.9,0s-1.7,0.1-2.6,0.1c-0.8,0-1.7,0.1-2.5,0.1s-1.8,0-2.7,0c-0.7,0-1.5,0-2.2,0s-1.4-0.1-2-0.1v1.1
 c0.9,0.1,1.6,0.2,2.2,0.3s1.1,0.2,1.5,0.3c0.4,0.2,0.7,0.5,0.8,0.9c0.2,0.4,0.2,1,0.2,1.8v14.2
 C357.6,338.9,357.5,339.5,357.4,339.9z" fill="#daaf6d"></path></g><g><path d="M412,342.4v-1c1.9,0,2.9-0.2,2.9-0.5s-0.4-0.9-1.3-1.7l-9.1-7.9l-2.3,1.4c-0.4,0.2-0.7,0.5-1,0.8
 s-0.5,0.7-0.6,1.1v4.6c0,1.6,1.7,2.4,5.1,2.4v1H391v-1c3.1,0,4.7-0.8,4.7-2.4v-15.8c0-1.7-1.7-2.5-5-2.5v-1h14.4v1
 c-3,0-4.5,0.8-4.5,2.5v8.3l11.8-7.6c0.8-0.5,1.3-0.9,1.5-1.2c0.3-0.3,0.4-0.7,0.4-1.2c0-0.6-1.2-0.9-3.5-0.9v-1h13.1v1
 c-1,0.1-1.8,0.2-2.5,0.3s-1.3,0.3-1.9,0.5c-0.6,0.2-1.2,0.6-1.8,1s-1.5,0.9-2.5,1.6l-7.1,4.7l11.6,10.2c0.5,0.3,0.9,0.7,1.3,1
 c0.4,0.3,0.8,0.5,1.3,0.8c0.5,0.2,1,0.4,1.5,0.5c0.6,0.1,1.2,0.2,2.1,0.2v1H412V342.4z" fill="#daaf6d"></path></g><g><path d="M414.2,341.4v1h12.1v-1.2c-0.1,0-0.2,0-0.2,0c-0.6-0.1-1.1-0.3-1.5-0.5c-0.5-0.2-0.9-0.5-1.3-0.8
 c-0.4-0.3-0.8-0.6-1.3-1l-11.6-10.2l7.1-4.7c1-0.7,1.8-1.2,2.5-1.6s1.2-0.7,1.8-1c0.6-0.2,1.2-0.4,1.9-0.5s1.5-0.2,2.5-0.3v-1
 h-13.1v1c2.3,0,3.5,0.3,3.5,0.9c0,0.5-0.1,0.9-0.4,1.2c-0.3,0.3-0.8,0.7-1.5,1.2l-11.8,7.6v-8.3c0-1.7,1.5-2.5,4.5-2.5v-1H393v1
 c3.3,0,5,0.8,5,2.5V339c0,1.6-1.6,2.4-4.7,2.4v1H408v-1c-3.4,0-5.1-0.8-5.1-2.4v-4.6c0.1-0.4,0.3-0.8,0.6-1.1
 c0.3-0.3,0.6-0.6,1-0.8l2.3-1.4l9.1,7.9c0.9,0.8,1.3,1.4,1.3,1.7C417.1,341.2,416.1,341.4,414.2,341.4z" fill="#daaf6d"></path></g><g><path d="M448.6,342.4v-1c0.5,0,1-0.1,1.5-0.1s1-0.1,1.4-0.2s0.8-0.2,1.1-0.3c0.3-0.1,0.4-0.2,0.4-0.4
 c0-0.1-0.1-0.2-0.1-0.4c0-0.2-0.1-0.4-0.3-0.6l-2.3-4.2c-0.4-0.6-1.4-0.9-3.1-0.9h-7.5c-1.3,0-2.1,0.3-2.3,0.9l-1.7,3.5
 c-0.1,0.2-0.2,0.5-0.2,0.9c0,1,1.5,1.6,4.4,1.6v1.2h-11.3v-1.2c1,0,1.8-0.3,2.5-0.7c0.7-0.4,1.3-1,1.7-1.8l12.1-19.6l1.5,0.4
 l11.9,20.3c0.5,0.5,0.8,0.8,1.1,0.9c0.1,0,0.3,0.1,0.8,0.2s1.2,0.2,2,0.4v1h-13.6V342.4z M444.2,324l-4.4,7.2
 c-0.4,0.5-0.6,0.9-0.6,1.2c0,0.3,0.6,0.5,1.9,0.5h6.4c1,0,1.5-0.1,1.5-0.4c0-0.1-0.2-0.5-0.6-1.1L444.2,324z" fill="#daaf6d"></path></g><g><path d="M449,336.6l1.2,2.3c1.2-0.9,2.6-1.8,4-2.5l-4-6.7c-1.3,0.7-2.6,1.2-4,1.6l0.8,1.4c0.4,0.6,0.6,1,0.6,1.1
 c0,0.3-0.5,0.4-1.5,0.4h-6.4c-1.2,0-1.9-0.2-1.9-0.5c0-0.2,0.2-0.6,0.6-1.2l0.2-0.3c-0.3,0-0.6,0-0.9-0.1c-0.8,1.4-1.8,2.8-2.9,4
 c0,0.7,0,1.5-0.1,2.2c0.1,0.1,0.3,0.2,0.4,0.2l1-2.1c0.3-0.6,1-0.9,2.3-0.9h7.5C447.6,335.7,448.6,336,449,336.6z" fill="#daaf6d"></path></g><g><path d="M456.7,341c-0.5-0.1-0.8-0.1-0.8-0.2c-0.3-0.1-0.6-0.4-1.1-0.9l-10.4-17.6c-0.7,1.4-1.6,2.7-2.6,3.9l3,5.2
 c0.4,0.6,0.6,1,0.6,1.1c0,0.3-0.5,0.4-1.5,0.4h-2.5c0.1,0.5,0.2,1,0.3,1.4h2c1.7,0,2.7,0.3,3.1,0.9l2.3,4.2
 c0.2,0.3,0.3,0.5,0.3,0.6c0,0.2,0,0.3,0.1,0.4c0,0.1-0.1,0.3-0.4,0.4c-0.3,0.1-0.6,0.2-1.1,0.3c-0.4,0.1-0.9,0.1-1.4,0.2
 c-0.5,0-1,0.1-1.5,0.1v1h13.8v-1C457.9,341.2,457.2,341.1,456.7,341z" fill="#daaf6d"></path></g><rect fill="#daaf6d" height="6.1" width="3.2" x="410" y="326.3"></rect><g><g><path d="M135.3,134.9c-4.8-11.1-7.5-23.4-7.5-36.3c0-13.1,2.8-25.6,7.8-37c-2.2-1.3-4.3-2.7-6.4-4
 c-5.7,12.5-8.8,26.3-8.8,40.9c0,19.2,5.5,37.2,15,52.3v-15.9H135.3z" fill="#daaf6d"></path><path d="M283.5,161.2c-16.5,17.5-39.7,28.4-65.4,28.4c-26.5,0-50.4-11.6-66.9-30c-2.2,1.3-4.4,2.6-6.5,4
 c17.9,20.5,44.2,33.5,73.3,33.5c30.3,0,57.4-14,75.4-35.9H283.5z" fill="#daaf6d"></path><path d="M218,7.5c37.5,0,69.7,23.2,83.4,56.1h8C295.4,26.5,259.7,0,218,0c-26.1,0-49.8,10.3-67.3,27.2
 c0.7,2.9,1.4,5.7,2.2,8.5C169.3,18.3,192.5,7.5,218,7.5z" fill="#daaf6d"></path></g><path d="M141.2,148.1c-0.7,1.4-1.5,2.5-2.2,3.2c-0.9,1.1-2,2.3-3.7,3.2c-1.9,0.9-3.1,0.7-3.2,1.4
 c-0.2,0.8,1.5,2,3.2,2.4c1.1,0.2,2.4,0.2,5.1-1.1c1.9-0.9,4.4-2.1,7-4.8c0,0,3.3-3.5,5.1-8.8c1.7-5.1,3-31.8,1.9-68.2
 c2.2,3.4,4.9,7,8,10.7c4,4.7,7.9,8.6,11.5,11.8c1.9,1.2,5.8,3.3,11,3.2c1.9,0,4.9-0.1,8-2.2c3.2-2.2,4.6-5.2,5.1-6.4
 c-0.9-25.7-0.7-45.2,0-53.6c0.2-2.5,0.7-7.3,3.7-12.1c2.5-3.8,5.3-5.5,5.9-5.9c3.5-2.1,6.7-2.2,9.1-2.4c3-0.2,6.3-0.4,9.4,1.6
 c0.8,0.6,2.8,1.8,3.7,4.3c0.8,2.2,0.5,4,0.3,5.3c-0.3,1.7-0.7,4.3-2.9,6.2c-2.7,2.4-6.4,2.2-7.1,2.2H220c-0.7,0-3.5-0.2-5.3-1.9
 c-0.3-0.2-2.9-2.5-2.2-5.1c0.4-1.5,1.8-2.9,2.9-2.7c1.2,0.2,1,2,2.7,2.9c1.2,0.7,3.1,0.8,4.3-0.3c1.1-1.1,1.1-2.9,0.5-4
 c-0.7-1.6-2.5-2.2-3.5-2.4c-2-0.6-4.7-0.4-7,1.4c-2.9,2.3-2.9,5.9-2.9,6.4c0,3.2,2.1,5.3,2.7,5.9c2.4,2.4,5.4,2.8,7,2.9
 c1.4,0.1,5,0.3,8.6-1.9c0.6-0.4,3.3-2.1,5.1-5.6c0.6-1.2,2.6-5.2,1.1-9.6c-1.4-4-4.7-5.8-6.7-7c-2.6-1.5-4.9-1.9-6.4-2.2
 c-6.8-1.2-12.3,0.8-14.2,1.6c-5.3,2.2-8.3,5.4-11,8.3c-2.3,2.5-6.4,7-8.6,14.2c-1.5,4.7-1.5,8.8-1.4,11.5c0,13.9,0,27.8,0,41.8
 c-13.3-16.7-26.6-33.4-39.9-50c-0.2-2.1-0.4-4.1-0.5-6.2c-4.6,3.8-9.2,7.5-13.8,11.3c1.2,0.6,2.3,1.3,3.5,1.9
 c2.2,3.3,4.3,6.6,6.4,9.9C141.3,88.8,141.2,118.5,141.2,148.1z" fill="#daaf6d"></path><path d="M178,57.5c0.4-0.3,2.6-2.3,2.5-4.9c0-0.3-0.1-1.8-1.1-2.2c-0.8-0.4-1.8,0.2-2.2,0.4
 c-1.2,0.7-1.2,1.5-2.1,1.9c-1.2,0.6-2.5,0-2.9-0.1c-1.8-0.7-2.9-2.6-3-4.5c0-2.5,1.8-4.1,2.1-4.4c1.4-1.2,2.9-1.4,5.2-1.6
 c0.8-0.1,2.7-0.2,5.1,0.2c0.4,0,0.8,0.1,1.2,0.2c1.1-4.6,2.9-9,5.2-13.2c-0.7-0.2-1.4-0.3-2.1-0.4c-2.6-0.4-7.2-1.1-12.5,0.7
 c-1.9,0.7-5.2,1.8-8.2,5c-1.2,1.3-3.1,3.7-4,7.3c-0.3,1.4-1.9,7.5,1.8,12.7c0.7,1,3,4.3,7.3,4.9C170.9,59.6,175,60.1,178,57.5z" fill="#daaf6d"></path><path d="M317.7,123.2c-0.6-0.3-1.3,0.3-2.3,0.8c0,0-0.7,0.4-4.6,1.5c-5.1,1.4-13.2-0.7-13.2-0.7
 c-17.9-5-26.8-7.4-35-11.3c-6.9-3.2-16.1-7.7-26.3-16.1c-5.3-4.4-10.6-9.7-10.2-10.1c0.4-0.5,7,5,17.5,11.7
 c9.5,6.1,18.5,11.7,31.1,15.7c0,0,11.1,3.6,25,3.6c2,0,6.2-0.1,10.7-2.1c1.9-0.8,3.4-2.1,6.3-4.4c1-0.8,2.1-1.8,2.1-3
 c0-0.8-0.3-1.9-1.1-2.2c-0.3-0.1-0.7-0.2-2.3,0.4c-1.4,0.6-2.4,1.2-2.6,1.4c-1.4,0.9-2.8,0.9-5.6,1c-6.1,0.1-9.2,0.2-11.1,0
 c-8.6-0.9-17-3.6-20.8-5c-14.4-5-23.4-10.9-27.2-13.6c-2.9-2.1-7.9-5.8-7.5-6.4c0.4-0.6,5.5,2.2,14.1,6.1
 c12.6,5.8,18.9,8.8,26.2,10.4c12.3,2.8,19.3,1,21.3,0.4c3.2-0.9,8.3-2.4,11.6-7.2c0.7-1,3-4.4,2.9-8.9c-0.1-3.3-1.3-5.7-2.2-7.2
 c-2.4-4.4-5.9-6.6-7.5-7.5c-2-1.1-4.8-2.7-8.6-2.2c-1.1,0.1-4.4,0.5-6.7,3.2c-2.1,2.3-2.2,5-2.3,5.7c0,0.5-0.2,3.2,1.5,5.7
 c0.6,0.9,1.5,2.4,2.9,2.4c0.8,0,1.7-0.5,2-1.2c0.1-0.3,0.1-0.6-0.6-2.1c-0.8-1.9-1-1.9-1.1-2.5c-0.2-1.5,0.6-2.8,0.8-3
 c0.8-1.2,2-1.5,2.8-1.8c1.5-0.5,2.9-0.4,3.7-0.2c2,0.4,3.3,1.5,3.9,2.2c0.8,0.8,1.8,1.7,2.1,3.2c0.4,1.7-0.2,3.1-0.5,3.6
 c-0.7,1.6-2,2.4-2.8,2.9c-1.3,0.8-2.5,1.1-4.2,1.4c-2.8,0.5-4.8,0.8-7.9,0.7c-1.3,0-4.3-0.2-9.6-1.8c-3.2-0.9-12.9-3.8-12.6-6.2
 c0.1-1.3,2.9-0.9,5.3-3.8c1.6-2,1.9-4.2,2-5c0.1-1.1,0.3-2.8-0.6-4.5c-0.3-0.7-1.2-2.3-2.6-2.4c-1.1-0.1-1.9,0.7-2.1,0.8
 c-0.9,0.8-0.7,1.8-1.3,2.9c-0.7,1.4-1.9,2.1-3.3,2.8c-2.6,1.4-5.8,1.8-9.9,1.5c-2.4-0.1-6.9-0.6-12.6-2.6c-3.7-1.3-6.7-2.8-8.7-4
 c-3.9-1.3-7.4-4-10.3-6.9c-1.1-0.5-2.1-1-3.1-1.6c-3.3-2-6.3-4.7-9.3-7.1c-2.6-2.1-4.8-5-7.6-6.9l0,0v23.6
 c1.5,6.2,0.8,13.2-1.2,19.1c-2.1,5.9-5.1,11.5-10.4,15.1c-2.8,1.9-6.2,2.9-9.6,2.8c-1.4,0.1-2.6,0-3.3-0.2
 c-1.2-0.2-4.1-0.6-6.9-2.5c-2-1.4-2.3-2.5-4.3-3c-0.4-0.1-3.1-0.8-4.4,0.6c-0.2,0.2-0.9,1.2-0.2,4c1.2,4.5,4.3,7.3,5,8
 c1,0.9,2,1.6,3,2.2c1,0.8,2,1.5,3.2,2c7.5,5.1,17.2,6,26.5,5.2c0,0,0,0.1,0.1,0.1c0,0,0,0,0,0.1v18c0,0.9,0.7,1.4,1.4,1.4
 c0,0.1,0,0.1,0,0.2c2.9,0.3,6.3,1.6,11.8,4c2,0.8,6.2,3.7,14.5,9.6c0,0,3.9,2.8,8.5,7.8c1.1,1.2,2.5,2.9,2.7,5.3
 c0,0.7,0.2,2.5-1,4.2c-1.3,1.7-3.3,1.9-4.1,2.1c-1.6,0.2-3.1-0.2-3.8-0.4c-1.5-0.5-2.2-1.2-2.6-0.9c-0.5,0.4-0.3,1.7,0.2,2.6
 c0.4,0.7,1.2,1.5,3.7,2.2c2.1,0.6,5.5,1.4,9.3-0.3c1-0.5,4.6-2.1,5.8-5.9c1-3-0.1-5.7-0.9-7.6c-1.4-3.5-3.6-5.6-5-6.9
 c-7.2-6.8-14-12.2-16.9-14.5c-5-4-7.5-5.9-9.1-7.5c-7.6-7.2-12.5-15.2-11.9-15.8c0.8-0.7,8.4,10.5,24.4,21.4c8,5.4,7,3.2,23.2,12.5
 c0,0,2.1,1.2,16.3,5.9c1.3,0.4,3.9,1.3,4.7,0.3c0.4-0.6,0.3-1.5-0.2-2.2c-0.9-1.4-3.3-1.3-3.8-1.3c-3.5,0-9.5-3.5-20.3-9.9
 c-13.8-8.1-20.7-12.2-26.7-17.2c-12.6-10.3-21.6-21.8-21.2-22.1c0.2-0.2,3,2.5,8.9,7.7c10.5,9.2,19.1,16.7,30.5,23.4
 c7.5,4.4,13.1,6.6,23.8,10.9c0,0,11.8,4.6,27.1,5.8c2.4,0.2,6.9,0.4,8.3-1.9c0.4-0.7,0.7-1.9,0.2-2.5c-0.6-0.7-2.2-0.1-2.7,0
 c-2.4,0.7-5.7,0-12.2-1.6c-14.1-3.4-31.9-12.7-31.9-12.7c-11.9-6.2-21.3-11.3-31.6-21c-5.7-5.4-11.5-12-10.9-12.7
 c0.8-0.9,11.6,9.1,31.5,21.8c4.9,3.1,16.7,10.5,30.9,15.6c5.9,2.2,9.3,2.7,16,3.8c0,0,5.4,0.9,13.3,0.1c2.4-0.2,5.1-0.7,6.2-2.6
 c0.5-0.8,0.7-2.2,0.2-2.7c-0.6-0.6-1.9,0.1-3.2,0.6c-2.1,0.7-3.9,0.4-7.6-0.2c-15.5-2.4-24.7-5.8-24.7-5.8
 c-7.5-2.8-24.6-9.2-41.9-24c-6.9-5.9-13.5-12.8-13.2-13.1c0.2-0.3,4.9,3.8,9.5,7.4c18.3,14.3,35.3,21.3,40.6,23.3
 c0,0,15.6,6,29.4,6.3c4.1,0.1,7.5-0.6,9.5-1c1.3-0.3,3.3-1.1,7.4-2.9c0.7-0.3,2-0.8,2.3-2C318.7,124.7,318.4,123.5,317.7,123.2z" fill="#daaf6d"></path><path d="M186.4,124.1c4.6,0,9.3,0,13.9,0c0,16,0,31.9,0,47.9c0.9,1,1.8,2.1,2.6,3.1c0.1,0.6,0.1,1.1,0.2,1.7
 c-6.5,0-13,0-19.5,0c0-0.6,0-1.2,0-1.9c0.9-0.9,1.8-1.8,2.7-2.7C186.3,156.2,186.4,140.2,186.4,124.1z" fill="#daaf6d"></path><path d="M203.3,95.1c0-17.7,0-35.4,0-53.1c0.8-0.2,2.2-0.4,3.8-0.1c1.7,0.4,2.9,1.2,3.9,2c4,3.2,6.2,5.6,6.2,5.6
 c5.3,5.8,5.1,6.1,7.8,8.8c4.3,4.2,5.3,3.6,6.1,5.5c2,4.3-1.8,9.8-7.1,17.2c-5.3,7.4-11.5,16.2-18,15.1
 C204.8,95.9,203.9,95.4,203.3,95.1z" fill="#daaf6d"></path></g></svg>